<mxfile host="app.diagrams.net" agent="Mozilla/5.0 (Macintosh; Intel Mac OS X 10_15_7) AppleWebKit/537.36 (KHTML, like Gecko) Chrome/129.0.0.0 Safari/537.36" version="24.7.17">
  <diagram name="solution" id="qw6IBQWtgg2uzaBCxlZd">
    <mxGraphModel dx="2336" dy="848" grid="0" gridSize="10" guides="1" tooltips="1" connect="1" arrows="1" fold="1" page="0" pageScale="1" pageWidth="1200" pageHeight="1920" math="1" shadow="0">
      <root>
        <mxCell id="0" />
        <mxCell id="1" parent="0" />
        <mxCell id="yxMzsUbInx-t9ANGKYJj-90" value="" style="shape=table;startSize=0;container=1;collapsible=0;childLayout=tableLayout;" parent="1" vertex="1">
          <mxGeometry x="-740" y="144" width="240" height="200" as="geometry" />
        </mxCell>
        <mxCell id="yxMzsUbInx-t9ANGKYJj-91" value="" style="shape=tableRow;horizontal=0;startSize=0;swimlaneHead=0;swimlaneBody=0;strokeColor=inherit;top=0;left=0;bottom=0;right=0;collapsible=0;dropTarget=0;fillColor=none;points=[[0,0.5],[1,0.5]];portConstraint=eastwest;" parent="yxMzsUbInx-t9ANGKYJj-90" vertex="1">
          <mxGeometry width="240" height="40" as="geometry" />
        </mxCell>
        <mxCell id="yxMzsUbInx-t9ANGKYJj-92" value="" style="shape=partialRectangle;html=1;whiteSpace=wrap;connectable=0;strokeColor=inherit;overflow=hidden;fillColor=none;top=0;left=0;bottom=0;right=0;pointerEvents=1;" parent="yxMzsUbInx-t9ANGKYJj-91" vertex="1">
          <mxGeometry width="60" height="40" as="geometry">
            <mxRectangle width="60" height="40" as="alternateBounds" />
          </mxGeometry>
        </mxCell>
        <mxCell id="yxMzsUbInx-t9ANGKYJj-93" value="时序关系" style="shape=partialRectangle;html=1;whiteSpace=wrap;connectable=0;strokeColor=inherit;overflow=hidden;fillColor=none;top=0;left=0;bottom=0;right=0;pointerEvents=1;" parent="yxMzsUbInx-t9ANGKYJj-91" vertex="1">
          <mxGeometry x="60" width="60" height="40" as="geometry">
            <mxRectangle width="60" height="40" as="alternateBounds" />
          </mxGeometry>
        </mxCell>
        <mxCell id="yxMzsUbInx-t9ANGKYJj-94" value="约束依赖" style="shape=partialRectangle;html=1;whiteSpace=wrap;connectable=0;strokeColor=inherit;overflow=hidden;fillColor=none;top=0;left=0;bottom=0;right=0;pointerEvents=1;" parent="yxMzsUbInx-t9ANGKYJj-91" vertex="1">
          <mxGeometry x="120" width="60" height="40" as="geometry">
            <mxRectangle width="60" height="40" as="alternateBounds" />
          </mxGeometry>
        </mxCell>
        <mxCell id="yxMzsUbInx-t9ANGKYJj-95" value="因果关系" style="shape=partialRectangle;html=1;whiteSpace=wrap;connectable=0;strokeColor=inherit;overflow=hidden;fillColor=none;top=0;left=0;bottom=0;right=0;pointerEvents=1;" parent="yxMzsUbInx-t9ANGKYJj-91" vertex="1">
          <mxGeometry x="180" width="60" height="40" as="geometry">
            <mxRectangle width="60" height="40" as="alternateBounds" />
          </mxGeometry>
        </mxCell>
        <mxCell id="yxMzsUbInx-t9ANGKYJj-96" value="" style="shape=tableRow;horizontal=0;startSize=0;swimlaneHead=0;swimlaneBody=0;strokeColor=inherit;top=0;left=0;bottom=0;right=0;collapsible=0;dropTarget=0;fillColor=none;points=[[0,0.5],[1,0.5]];portConstraint=eastwest;" parent="yxMzsUbInx-t9ANGKYJj-90" vertex="1">
          <mxGeometry y="40" width="240" height="40" as="geometry" />
        </mxCell>
        <mxCell id="yxMzsUbInx-t9ANGKYJj-97" value="1" style="shape=partialRectangle;html=1;whiteSpace=wrap;connectable=0;strokeColor=inherit;overflow=hidden;fillColor=none;top=0;left=0;bottom=0;right=0;pointerEvents=1;" parent="yxMzsUbInx-t9ANGKYJj-96" vertex="1">
          <mxGeometry width="60" height="40" as="geometry">
            <mxRectangle width="60" height="40" as="alternateBounds" />
          </mxGeometry>
        </mxCell>
        <mxCell id="yxMzsUbInx-t9ANGKYJj-98" value="T" style="shape=partialRectangle;html=1;whiteSpace=wrap;connectable=0;strokeColor=inherit;overflow=hidden;fillColor=none;top=0;left=0;bottom=0;right=0;pointerEvents=1;" parent="yxMzsUbInx-t9ANGKYJj-96" vertex="1">
          <mxGeometry x="60" width="60" height="40" as="geometry">
            <mxRectangle width="60" height="40" as="alternateBounds" />
          </mxGeometry>
        </mxCell>
        <mxCell id="yxMzsUbInx-t9ANGKYJj-99" value="F" style="shape=partialRectangle;html=1;whiteSpace=wrap;connectable=0;strokeColor=inherit;overflow=hidden;fillColor=none;top=0;left=0;bottom=0;right=0;pointerEvents=1;" parent="yxMzsUbInx-t9ANGKYJj-96" vertex="1">
          <mxGeometry x="120" width="60" height="40" as="geometry">
            <mxRectangle width="60" height="40" as="alternateBounds" />
          </mxGeometry>
        </mxCell>
        <mxCell id="yxMzsUbInx-t9ANGKYJj-100" value="F" style="shape=partialRectangle;html=1;whiteSpace=wrap;connectable=0;strokeColor=inherit;overflow=hidden;fillColor=none;top=0;left=0;bottom=0;right=0;pointerEvents=1;" parent="yxMzsUbInx-t9ANGKYJj-96" vertex="1">
          <mxGeometry x="180" width="60" height="40" as="geometry">
            <mxRectangle width="60" height="40" as="alternateBounds" />
          </mxGeometry>
        </mxCell>
        <mxCell id="yxMzsUbInx-t9ANGKYJj-101" value="" style="shape=tableRow;horizontal=0;startSize=0;swimlaneHead=0;swimlaneBody=0;strokeColor=inherit;top=0;left=0;bottom=0;right=0;collapsible=0;dropTarget=0;fillColor=none;points=[[0,0.5],[1,0.5]];portConstraint=eastwest;" parent="yxMzsUbInx-t9ANGKYJj-90" vertex="1">
          <mxGeometry y="80" width="240" height="40" as="geometry" />
        </mxCell>
        <mxCell id="yxMzsUbInx-t9ANGKYJj-102" value="2" style="shape=partialRectangle;html=1;whiteSpace=wrap;connectable=0;strokeColor=inherit;overflow=hidden;fillColor=none;top=0;left=0;bottom=0;right=0;pointerEvents=1;" parent="yxMzsUbInx-t9ANGKYJj-101" vertex="1">
          <mxGeometry width="60" height="40" as="geometry">
            <mxRectangle width="60" height="40" as="alternateBounds" />
          </mxGeometry>
        </mxCell>
        <mxCell id="yxMzsUbInx-t9ANGKYJj-103" value="T" style="shape=partialRectangle;html=1;whiteSpace=wrap;connectable=0;strokeColor=inherit;overflow=hidden;fillColor=none;top=0;left=0;bottom=0;right=0;pointerEvents=1;" parent="yxMzsUbInx-t9ANGKYJj-101" vertex="1">
          <mxGeometry x="60" width="60" height="40" as="geometry">
            <mxRectangle width="60" height="40" as="alternateBounds" />
          </mxGeometry>
        </mxCell>
        <mxCell id="yxMzsUbInx-t9ANGKYJj-104" value="T" style="shape=partialRectangle;html=1;whiteSpace=wrap;connectable=0;strokeColor=inherit;overflow=hidden;fillColor=none;top=0;left=0;bottom=0;right=0;pointerEvents=1;" parent="yxMzsUbInx-t9ANGKYJj-101" vertex="1">
          <mxGeometry x="120" width="60" height="40" as="geometry">
            <mxRectangle width="60" height="40" as="alternateBounds" />
          </mxGeometry>
        </mxCell>
        <mxCell id="yxMzsUbInx-t9ANGKYJj-105" value="F" style="shape=partialRectangle;html=1;whiteSpace=wrap;connectable=0;strokeColor=inherit;overflow=hidden;fillColor=none;top=0;left=0;bottom=0;right=0;pointerEvents=1;" parent="yxMzsUbInx-t9ANGKYJj-101" vertex="1">
          <mxGeometry x="180" width="60" height="40" as="geometry">
            <mxRectangle width="60" height="40" as="alternateBounds" />
          </mxGeometry>
        </mxCell>
        <mxCell id="yxMzsUbInx-t9ANGKYJj-106" value="" style="shape=tableRow;horizontal=0;startSize=0;swimlaneHead=0;swimlaneBody=0;strokeColor=inherit;top=0;left=0;bottom=0;right=0;collapsible=0;dropTarget=0;fillColor=none;points=[[0,0.5],[1,0.5]];portConstraint=eastwest;" parent="yxMzsUbInx-t9ANGKYJj-90" vertex="1">
          <mxGeometry y="120" width="240" height="40" as="geometry" />
        </mxCell>
        <mxCell id="yxMzsUbInx-t9ANGKYJj-107" value="3" style="shape=partialRectangle;html=1;whiteSpace=wrap;connectable=0;strokeColor=inherit;overflow=hidden;fillColor=none;top=0;left=0;bottom=0;right=0;pointerEvents=1;" parent="yxMzsUbInx-t9ANGKYJj-106" vertex="1">
          <mxGeometry width="60" height="40" as="geometry">
            <mxRectangle width="60" height="40" as="alternateBounds" />
          </mxGeometry>
        </mxCell>
        <mxCell id="yxMzsUbInx-t9ANGKYJj-108" value="T" style="shape=partialRectangle;html=1;whiteSpace=wrap;connectable=0;strokeColor=inherit;overflow=hidden;fillColor=none;top=0;left=0;bottom=0;right=0;pointerEvents=1;" parent="yxMzsUbInx-t9ANGKYJj-106" vertex="1">
          <mxGeometry x="60" width="60" height="40" as="geometry">
            <mxRectangle width="60" height="40" as="alternateBounds" />
          </mxGeometry>
        </mxCell>
        <mxCell id="yxMzsUbInx-t9ANGKYJj-109" value="F" style="shape=partialRectangle;html=1;whiteSpace=wrap;connectable=0;strokeColor=inherit;overflow=hidden;fillColor=none;top=0;left=0;bottom=0;right=0;pointerEvents=1;" parent="yxMzsUbInx-t9ANGKYJj-106" vertex="1">
          <mxGeometry x="120" width="60" height="40" as="geometry">
            <mxRectangle width="60" height="40" as="alternateBounds" />
          </mxGeometry>
        </mxCell>
        <mxCell id="yxMzsUbInx-t9ANGKYJj-110" value="T" style="shape=partialRectangle;html=1;whiteSpace=wrap;connectable=0;strokeColor=inherit;overflow=hidden;fillColor=none;top=0;left=0;bottom=0;right=0;pointerEvents=1;" parent="yxMzsUbInx-t9ANGKYJj-106" vertex="1">
          <mxGeometry x="180" width="60" height="40" as="geometry">
            <mxRectangle width="60" height="40" as="alternateBounds" />
          </mxGeometry>
        </mxCell>
        <mxCell id="yxMzsUbInx-t9ANGKYJj-111" value="" style="shape=tableRow;horizontal=0;startSize=0;swimlaneHead=0;swimlaneBody=0;strokeColor=inherit;top=0;left=0;bottom=0;right=0;collapsible=0;dropTarget=0;fillColor=none;points=[[0,0.5],[1,0.5]];portConstraint=eastwest;" parent="yxMzsUbInx-t9ANGKYJj-90" vertex="1">
          <mxGeometry y="160" width="240" height="40" as="geometry" />
        </mxCell>
        <mxCell id="yxMzsUbInx-t9ANGKYJj-112" value="4" style="shape=partialRectangle;html=1;whiteSpace=wrap;connectable=0;strokeColor=inherit;overflow=hidden;fillColor=none;top=0;left=0;bottom=0;right=0;pointerEvents=1;" parent="yxMzsUbInx-t9ANGKYJj-111" vertex="1">
          <mxGeometry width="60" height="40" as="geometry">
            <mxRectangle width="60" height="40" as="alternateBounds" />
          </mxGeometry>
        </mxCell>
        <mxCell id="yxMzsUbInx-t9ANGKYJj-113" value="T" style="shape=partialRectangle;html=1;whiteSpace=wrap;connectable=0;strokeColor=inherit;overflow=hidden;fillColor=none;top=0;left=0;bottom=0;right=0;pointerEvents=1;" parent="yxMzsUbInx-t9ANGKYJj-111" vertex="1">
          <mxGeometry x="60" width="60" height="40" as="geometry">
            <mxRectangle width="60" height="40" as="alternateBounds" />
          </mxGeometry>
        </mxCell>
        <mxCell id="yxMzsUbInx-t9ANGKYJj-114" value="T" style="shape=partialRectangle;html=1;whiteSpace=wrap;connectable=0;strokeColor=inherit;overflow=hidden;fillColor=none;top=0;left=0;bottom=0;right=0;pointerEvents=1;" parent="yxMzsUbInx-t9ANGKYJj-111" vertex="1">
          <mxGeometry x="120" width="60" height="40" as="geometry">
            <mxRectangle width="60" height="40" as="alternateBounds" />
          </mxGeometry>
        </mxCell>
        <mxCell id="yxMzsUbInx-t9ANGKYJj-115" value="T" style="shape=partialRectangle;html=1;whiteSpace=wrap;connectable=0;strokeColor=inherit;overflow=hidden;fillColor=none;top=0;left=0;bottom=0;right=0;pointerEvents=1;" parent="yxMzsUbInx-t9ANGKYJj-111" vertex="1">
          <mxGeometry x="180" width="60" height="40" as="geometry">
            <mxRectangle width="60" height="40" as="alternateBounds" />
          </mxGeometry>
        </mxCell>
        <mxCell id="yxMzsUbInx-t9ANGKYJj-124" value="" style="edgeStyle=orthogonalEdgeStyle;rounded=0;orthogonalLoop=1;jettySize=auto;html=1;" parent="1" source="yxMzsUbInx-t9ANGKYJj-118" target="yxMzsUbInx-t9ANGKYJj-123" edge="1">
          <mxGeometry relative="1" as="geometry" />
        </mxCell>
        <mxCell id="yxMzsUbInx-t9ANGKYJj-118" value="A" style="ellipse;whiteSpace=wrap;html=1;aspect=fixed;" parent="1" vertex="1">
          <mxGeometry x="470" y="306.01" width="42" height="42" as="geometry" />
        </mxCell>
        <mxCell id="yxMzsUbInx-t9ANGKYJj-121" style="edgeStyle=orthogonalEdgeStyle;rounded=0;orthogonalLoop=1;jettySize=auto;html=1;exitX=0;exitY=0;exitDx=0;exitDy=0;entryX=1;entryY=0;entryDx=0;entryDy=0;curved=1;" parent="1" source="yxMzsUbInx-t9ANGKYJj-118" target="yxMzsUbInx-t9ANGKYJj-118" edge="1">
          <mxGeometry relative="1" as="geometry">
            <Array as="points">
              <mxPoint x="476" y="295.01" />
              <mxPoint x="506" y="295.01" />
            </Array>
          </mxGeometry>
        </mxCell>
        <mxCell id="yxMzsUbInx-t9ANGKYJj-123" value="B" style="ellipse;whiteSpace=wrap;html=1;aspect=fixed;" parent="1" vertex="1">
          <mxGeometry x="536" y="306.01" width="42" height="42" as="geometry" />
        </mxCell>
        <mxCell id="yxMzsUbInx-t9ANGKYJj-125" style="edgeStyle=orthogonalEdgeStyle;rounded=0;orthogonalLoop=1;jettySize=auto;html=1;exitX=0;exitY=0;exitDx=0;exitDy=0;entryX=1;entryY=0;entryDx=0;entryDy=0;curved=1;" parent="1" source="yxMzsUbInx-t9ANGKYJj-123" target="yxMzsUbInx-t9ANGKYJj-123" edge="1">
          <mxGeometry relative="1" as="geometry">
            <Array as="points">
              <mxPoint x="542" y="296.01" />
              <mxPoint x="572" y="296.01" />
            </Array>
          </mxGeometry>
        </mxCell>
        <mxCell id="yxMzsUbInx-t9ANGKYJj-126" value="&lt;font style=&quot;font-size: 24px;&quot;&gt;Situation 1:&lt;/font&gt;" style="text;html=1;align=center;verticalAlign=middle;whiteSpace=wrap;rounded=0;" parent="1" vertex="1">
          <mxGeometry x="5" y="206" width="166" height="138" as="geometry" />
        </mxCell>
        <mxCell id="yxMzsUbInx-t9ANGKYJj-128" value="A" style="ellipse;whiteSpace=wrap;html=1;aspect=fixed;" parent="1" vertex="1">
          <mxGeometry x="432" y="419.99" width="42" height="42" as="geometry" />
        </mxCell>
        <mxCell id="yxMzsUbInx-t9ANGKYJj-129" style="edgeStyle=orthogonalEdgeStyle;rounded=0;orthogonalLoop=1;jettySize=auto;html=1;exitX=0;exitY=0;exitDx=0;exitDy=0;entryX=1;entryY=0;entryDx=0;entryDy=0;curved=1;" parent="1" source="yxMzsUbInx-t9ANGKYJj-128" target="yxMzsUbInx-t9ANGKYJj-128" edge="1">
          <mxGeometry relative="1" as="geometry">
            <Array as="points">
              <mxPoint x="438" y="408.99" />
              <mxPoint x="468" y="408.99" />
            </Array>
          </mxGeometry>
        </mxCell>
        <mxCell id="yxMzsUbInx-t9ANGKYJj-130" value="B" style="ellipse;whiteSpace=wrap;html=1;aspect=fixed;" parent="1" vertex="1">
          <mxGeometry x="571" y="419.99" width="42" height="42" as="geometry" />
        </mxCell>
        <mxCell id="yxMzsUbInx-t9ANGKYJj-131" style="edgeStyle=orthogonalEdgeStyle;rounded=0;orthogonalLoop=1;jettySize=auto;html=1;exitX=0;exitY=0;exitDx=0;exitDy=0;entryX=1;entryY=0;entryDx=0;entryDy=0;curved=1;" parent="1" source="yxMzsUbInx-t9ANGKYJj-130" target="yxMzsUbInx-t9ANGKYJj-130" edge="1">
          <mxGeometry relative="1" as="geometry">
            <Array as="points">
              <mxPoint x="577" y="409.99" />
              <mxPoint x="607" y="409.99" />
            </Array>
          </mxGeometry>
        </mxCell>
        <mxCell id="yxMzsUbInx-t9ANGKYJj-132" value="" style="shape=flexArrow;endArrow=classic;html=1;rounded=0;" parent="1" edge="1">
          <mxGeometry width="50" height="50" relative="1" as="geometry">
            <mxPoint x="524" y="357" as="sourcePoint" />
            <mxPoint x="524" y="406" as="targetPoint" />
          </mxGeometry>
        </mxCell>
        <mxCell id="yxMzsUbInx-t9ANGKYJj-133" value="依据Kleene拆分为多个子模式" style="text;html=1;align=center;verticalAlign=middle;whiteSpace=wrap;rounded=0;" parent="1" vertex="1">
          <mxGeometry x="546" y="361" width="166" height="30" as="geometry" />
        </mxCell>
        <mxCell id="yxMzsUbInx-t9ANGKYJj-134" value="$$B.endtime - A.starttime \leq time\_limit$$" style="text;html=1;align=center;verticalAlign=middle;whiteSpace=wrap;rounded=0;" parent="1" vertex="1">
          <mxGeometry x="712" y="429.02" width="192" height="30" as="geometry" />
        </mxCell>
        <mxCell id="yxMzsUbInx-t9ANGKYJj-136" value="" style="verticalLabelPosition=bottom;verticalAlign=top;html=1;shape=mxgraph.flowchart.summing_function;" parent="1" vertex="1">
          <mxGeometry x="509" y="429.02" width="30" height="30" as="geometry" />
        </mxCell>
        <mxCell id="yxMzsUbInx-t9ANGKYJj-137" value="" style="verticalLabelPosition=bottom;verticalAlign=top;html=1;shape=mxgraph.flowchart.summing_function;" parent="1" vertex="1">
          <mxGeometry x="644" y="429.02" width="30" height="30" as="geometry" />
        </mxCell>
        <mxCell id="yxMzsUbInx-t9ANGKYJj-140" value="" style="group" parent="1" vertex="1" connectable="0">
          <mxGeometry x="231" y="593" width="319" height="2" as="geometry" />
        </mxCell>
        <mxCell id="yxMzsUbInx-t9ANGKYJj-138" value="" style="endArrow=classic;html=1;rounded=0;" parent="yxMzsUbInx-t9ANGKYJj-140" edge="1">
          <mxGeometry width="50" height="50" relative="1" as="geometry">
            <mxPoint y="2" as="sourcePoint" />
            <mxPoint x="319" y="2" as="targetPoint" />
          </mxGeometry>
        </mxCell>
        <mxCell id="yxMzsUbInx-t9ANGKYJj-139" value="" style="endArrow=none;dashed=1;html=1;strokeWidth=4;rounded=0;dashPattern=1 4;" parent="yxMzsUbInx-t9ANGKYJj-140" edge="1">
          <mxGeometry width="50" height="50" relative="1" as="geometry">
            <mxPoint as="sourcePoint" />
            <mxPoint x="319" as="targetPoint" />
          </mxGeometry>
        </mxCell>
        <mxCell id="yxMzsUbInx-t9ANGKYJj-141" value="`t_{0}`" style="text;html=1;align=center;verticalAlign=middle;whiteSpace=wrap;rounded=0;" parent="1" vertex="1">
          <mxGeometry x="327" y="595" width="18" height="30" as="geometry" />
        </mxCell>
        <mxCell id="yxMzsUbInx-t9ANGKYJj-142" value="`t_1`" style="text;html=1;align=center;verticalAlign=middle;whiteSpace=wrap;rounded=0;" parent="1" vertex="1">
          <mxGeometry x="345" y="595" width="18" height="30" as="geometry" />
        </mxCell>
        <mxCell id="yxMzsUbInx-t9ANGKYJj-143" value="`t_2`" style="text;html=1;align=center;verticalAlign=middle;whiteSpace=wrap;rounded=0;" parent="1" vertex="1">
          <mxGeometry x="365" y="595" width="18" height="30" as="geometry" />
        </mxCell>
        <mxCell id="yxMzsUbInx-t9ANGKYJj-144" value="`t_3`" style="text;html=1;align=center;verticalAlign=middle;whiteSpace=wrap;rounded=0;" parent="1" vertex="1">
          <mxGeometry x="386" y="595" width="18" height="30" as="geometry" />
        </mxCell>
        <mxCell id="yxMzsUbInx-t9ANGKYJj-145" value="&lt;b&gt;`t_{4}`&lt;/b&gt;" style="text;html=1;align=center;verticalAlign=middle;whiteSpace=wrap;rounded=0;" parent="1" vertex="1">
          <mxGeometry x="407" y="595" width="18" height="30" as="geometry" />
        </mxCell>
        <mxCell id="yxMzsUbInx-t9ANGKYJj-146" value="`t_5`" style="text;html=1;align=center;verticalAlign=middle;whiteSpace=wrap;rounded=0;" parent="1" vertex="1">
          <mxGeometry x="425" y="595" width="18" height="30" as="geometry" />
        </mxCell>
        <mxCell id="yxMzsUbInx-t9ANGKYJj-147" value="`t_6`" style="text;html=1;align=center;verticalAlign=middle;whiteSpace=wrap;rounded=0;" parent="1" vertex="1">
          <mxGeometry x="445" y="595" width="18" height="30" as="geometry" />
        </mxCell>
        <mxCell id="yxMzsUbInx-t9ANGKYJj-148" value="`t_7`" style="text;html=1;align=center;verticalAlign=middle;whiteSpace=wrap;rounded=0;" parent="1" vertex="1">
          <mxGeometry x="466" y="595" width="18" height="30" as="geometry" />
        </mxCell>
        <mxCell id="yxMzsUbInx-t9ANGKYJj-149" value="" style="endArrow=none;dashed=1;html=1;dashPattern=1 3;strokeWidth=2;rounded=0;" parent="1" edge="1">
          <mxGeometry width="50" height="50" relative="1" as="geometry">
            <mxPoint x="413" y="594" as="sourcePoint" />
            <mxPoint x="413" y="545" as="targetPoint" />
          </mxGeometry>
        </mxCell>
        <mxCell id="yxMzsUbInx-t9ANGKYJj-152" value="$$\begin{align}&amp;amp; P = A\{2,\} B\{2,\} \\&amp;amp; C_V = \{AVG(A) &amp;gt;= 10, AVG(B) &amp;gt;= 10\} \\&amp;amp; C_T = \{B.endtime - A.starttime \leq 4\ second\} \end{align}$$" style="text;html=1;align=center;verticalAlign=middle;resizable=0;points=[];autosize=1;strokeColor=none;fillColor=none;" parent="1" vertex="1">
          <mxGeometry x="230" y="231" width="771" height="26" as="geometry" />
        </mxCell>
        <mxCell id="yxMzsUbInx-t9ANGKYJj-155" value="$$\begin{align}&amp;amp; P = A\{2,\} \\&amp;amp; C_V = \{AVG(A) &amp;gt;= 10\} \\&amp;amp; C_T = \{A.endtime - A.starttime \leq 10\ second\} \end{align}$$" style="text;html=1;align=center;verticalAlign=middle;resizable=0;points=[];autosize=1;strokeColor=none;fillColor=none;" parent="1" vertex="1">
          <mxGeometry x="-64" y="415" width="661" height="26" as="geometry" />
        </mxCell>
        <mxCell id="yxMzsUbInx-t9ANGKYJj-158" value="`a_0`" style="ellipse;whiteSpace=wrap;html=1;aspect=fixed;" parent="1" vertex="1">
          <mxGeometry x="327" y="566" width="16" height="16" as="geometry" />
        </mxCell>
        <mxCell id="yxMzsUbInx-t9ANGKYJj-159" value="`a_1`" style="ellipse;whiteSpace=wrap;html=1;aspect=fixed;" parent="1" vertex="1">
          <mxGeometry x="346" y="566" width="16" height="16" as="geometry" />
        </mxCell>
        <mxCell id="yxMzsUbInx-t9ANGKYJj-160" value="`a_2`" style="ellipse;whiteSpace=wrap;html=1;aspect=fixed;" parent="1" vertex="1">
          <mxGeometry x="365" y="566" width="16" height="16" as="geometry" />
        </mxCell>
        <mxCell id="yxMzsUbInx-t9ANGKYJj-161" value="`a_3`" style="ellipse;whiteSpace=wrap;html=1;aspect=fixed;" parent="1" vertex="1">
          <mxGeometry x="383" y="566" width="16" height="16" as="geometry" />
        </mxCell>
        <mxCell id="yxMzsUbInx-t9ANGKYJj-162" value="`a_4`" style="ellipse;whiteSpace=wrap;html=1;aspect=fixed;" parent="1" vertex="1">
          <mxGeometry x="402" y="566" width="16" height="16" as="geometry" />
        </mxCell>
        <mxCell id="yxMzsUbInx-t9ANGKYJj-163" value="" style="shape=curlyBracket;whiteSpace=wrap;html=1;rounded=1;labelPosition=left;verticalLabelPosition=middle;align=right;verticalAlign=middle;" parent="1" vertex="1">
          <mxGeometry x="574" y="534" width="20" height="120" as="geometry" />
        </mxCell>
        <mxCell id="yxMzsUbInx-t9ANGKYJj-165" value="" style="shape=table;startSize=0;container=1;collapsible=0;childLayout=tableLayout;" parent="1" vertex="1">
          <mxGeometry x="629" y="513" width="261.68292682926835" height="167.8780487804878" as="geometry" />
        </mxCell>
        <mxCell id="yxMzsUbInx-t9ANGKYJj-166" value="" style="shape=tableRow;horizontal=0;startSize=0;swimlaneHead=0;swimlaneBody=0;strokeColor=inherit;top=0;left=0;bottom=0;right=0;collapsible=0;dropTarget=0;fillColor=none;points=[[0,0.5],[1,0.5]];portConstraint=eastwest;" parent="yxMzsUbInx-t9ANGKYJj-165" vertex="1">
          <mxGeometry width="261.68292682926835" height="21" as="geometry" />
        </mxCell>
        <mxCell id="yxMzsUbInx-t9ANGKYJj-167" value="`a_1=3`" style="shape=partialRectangle;html=1;whiteSpace=wrap;connectable=0;strokeColor=inherit;overflow=hidden;fillColor=none;top=0;left=0;bottom=0;right=0;pointerEvents=1;" parent="yxMzsUbInx-t9ANGKYJj-166" vertex="1">
          <mxGeometry width="47" height="21" as="geometry">
            <mxRectangle width="47" height="21" as="alternateBounds" />
          </mxGeometry>
        </mxCell>
        <mxCell id="yxMzsUbInx-t9ANGKYJj-168" value="`a_2=9`" style="shape=partialRectangle;html=1;whiteSpace=wrap;connectable=0;strokeColor=inherit;overflow=hidden;fillColor=none;top=0;left=0;bottom=0;right=0;pointerEvents=1;" parent="yxMzsUbInx-t9ANGKYJj-166" vertex="1">
          <mxGeometry x="47" width="46" height="21" as="geometry">
            <mxRectangle width="46" height="21" as="alternateBounds" />
          </mxGeometry>
        </mxCell>
        <mxCell id="yxMzsUbInx-t9ANGKYJj-169" value="`a_3=4`" style="shape=partialRectangle;html=1;whiteSpace=wrap;connectable=0;strokeColor=inherit;overflow=hidden;fillColor=none;top=0;left=0;bottom=0;right=0;pointerEvents=1;" parent="yxMzsUbInx-t9ANGKYJj-166" vertex="1">
          <mxGeometry x="93" width="45" height="21" as="geometry">
            <mxRectangle width="45" height="21" as="alternateBounds" />
          </mxGeometry>
        </mxCell>
        <mxCell id="yxMzsUbInx-t9ANGKYJj-170" value="`a_4=17`" style="shape=partialRectangle;html=1;whiteSpace=wrap;connectable=0;strokeColor=inherit;overflow=hidden;fillColor=none;top=0;left=0;bottom=0;right=0;pointerEvents=1;" parent="yxMzsUbInx-t9ANGKYJj-166" vertex="1">
          <mxGeometry x="138" width="62" height="21" as="geometry">
            <mxRectangle width="62" height="21" as="alternateBounds" />
          </mxGeometry>
        </mxCell>
        <mxCell id="yxMzsUbInx-t9ANGKYJj-214" value="AVG" style="shape=partialRectangle;html=1;whiteSpace=wrap;connectable=0;strokeColor=inherit;overflow=hidden;fillColor=none;top=0;left=0;bottom=0;right=0;pointerEvents=1;" parent="yxMzsUbInx-t9ANGKYJj-166" vertex="1">
          <mxGeometry x="200" width="62" height="21" as="geometry">
            <mxRectangle width="62" height="21" as="alternateBounds" />
          </mxGeometry>
        </mxCell>
        <mxCell id="yxMzsUbInx-t9ANGKYJj-171" value="" style="shape=tableRow;horizontal=0;startSize=0;swimlaneHead=0;swimlaneBody=0;strokeColor=inherit;top=0;left=0;bottom=0;right=0;collapsible=0;dropTarget=0;fillColor=none;points=[[0,0.5],[1,0.5]];portConstraint=eastwest;" parent="yxMzsUbInx-t9ANGKYJj-165" vertex="1">
          <mxGeometry y="21" width="261.68292682926835" height="23" as="geometry" />
        </mxCell>
        <mxCell id="yxMzsUbInx-t9ANGKYJj-172" value="1" style="shape=partialRectangle;html=1;whiteSpace=wrap;connectable=0;strokeColor=inherit;overflow=hidden;fillColor=none;top=0;left=0;bottom=0;right=0;pointerEvents=1;" parent="yxMzsUbInx-t9ANGKYJj-171" vertex="1">
          <mxGeometry width="47" height="23" as="geometry">
            <mxRectangle width="47" height="23" as="alternateBounds" />
          </mxGeometry>
        </mxCell>
        <mxCell id="yxMzsUbInx-t9ANGKYJj-173" value="0" style="shape=partialRectangle;html=1;whiteSpace=wrap;connectable=0;strokeColor=inherit;overflow=hidden;fillColor=none;top=0;left=0;bottom=0;right=0;pointerEvents=1;" parent="yxMzsUbInx-t9ANGKYJj-171" vertex="1">
          <mxGeometry x="47" width="46" height="23" as="geometry">
            <mxRectangle width="46" height="23" as="alternateBounds" />
          </mxGeometry>
        </mxCell>
        <mxCell id="yxMzsUbInx-t9ANGKYJj-174" value="0" style="shape=partialRectangle;html=1;whiteSpace=wrap;connectable=0;strokeColor=inherit;overflow=hidden;fillColor=none;top=0;left=0;bottom=0;right=0;pointerEvents=1;" parent="yxMzsUbInx-t9ANGKYJj-171" vertex="1">
          <mxGeometry x="93" width="45" height="23" as="geometry">
            <mxRectangle width="45" height="23" as="alternateBounds" />
          </mxGeometry>
        </mxCell>
        <mxCell id="yxMzsUbInx-t9ANGKYJj-175" value="1" style="shape=partialRectangle;html=1;whiteSpace=wrap;connectable=0;strokeColor=inherit;overflow=hidden;fillColor=none;top=0;left=0;bottom=0;right=0;pointerEvents=1;" parent="yxMzsUbInx-t9ANGKYJj-171" vertex="1">
          <mxGeometry x="138" width="62" height="23" as="geometry">
            <mxRectangle width="62" height="23" as="alternateBounds" />
          </mxGeometry>
        </mxCell>
        <mxCell id="yxMzsUbInx-t9ANGKYJj-215" value="F" style="shape=partialRectangle;html=1;whiteSpace=wrap;connectable=0;strokeColor=inherit;overflow=hidden;fillColor=none;top=0;left=0;bottom=0;right=0;pointerEvents=1;" parent="yxMzsUbInx-t9ANGKYJj-171" vertex="1">
          <mxGeometry x="200" width="62" height="23" as="geometry">
            <mxRectangle width="62" height="23" as="alternateBounds" />
          </mxGeometry>
        </mxCell>
        <mxCell id="yxMzsUbInx-t9ANGKYJj-176" value="" style="shape=tableRow;horizontal=0;startSize=0;swimlaneHead=0;swimlaneBody=0;strokeColor=inherit;top=0;left=0;bottom=0;right=0;collapsible=0;dropTarget=0;fillColor=none;points=[[0,0.5],[1,0.5]];portConstraint=eastwest;" parent="yxMzsUbInx-t9ANGKYJj-165" vertex="1">
          <mxGeometry y="44" width="261.68292682926835" height="19" as="geometry" />
        </mxCell>
        <mxCell id="yxMzsUbInx-t9ANGKYJj-177" value="1" style="shape=partialRectangle;html=1;whiteSpace=wrap;connectable=0;strokeColor=inherit;overflow=hidden;fillColor=none;top=0;left=0;bottom=0;right=0;pointerEvents=1;" parent="yxMzsUbInx-t9ANGKYJj-176" vertex="1">
          <mxGeometry width="47" height="19" as="geometry">
            <mxRectangle width="47" height="19" as="alternateBounds" />
          </mxGeometry>
        </mxCell>
        <mxCell id="yxMzsUbInx-t9ANGKYJj-178" value="1" style="shape=partialRectangle;html=1;whiteSpace=wrap;connectable=0;strokeColor=inherit;overflow=hidden;fillColor=none;top=0;left=0;bottom=0;right=0;pointerEvents=1;" parent="yxMzsUbInx-t9ANGKYJj-176" vertex="1">
          <mxGeometry x="47" width="46" height="19" as="geometry">
            <mxRectangle width="46" height="19" as="alternateBounds" />
          </mxGeometry>
        </mxCell>
        <mxCell id="yxMzsUbInx-t9ANGKYJj-179" value="0" style="shape=partialRectangle;html=1;whiteSpace=wrap;connectable=0;strokeColor=inherit;overflow=hidden;fillColor=none;top=0;left=0;bottom=0;right=0;pointerEvents=1;" parent="yxMzsUbInx-t9ANGKYJj-176" vertex="1">
          <mxGeometry x="93" width="45" height="19" as="geometry">
            <mxRectangle width="45" height="19" as="alternateBounds" />
          </mxGeometry>
        </mxCell>
        <mxCell id="yxMzsUbInx-t9ANGKYJj-180" value="1" style="shape=partialRectangle;html=1;whiteSpace=wrap;connectable=0;strokeColor=inherit;overflow=hidden;fillColor=none;top=0;left=0;bottom=0;right=0;pointerEvents=1;" parent="yxMzsUbInx-t9ANGKYJj-176" vertex="1">
          <mxGeometry x="138" width="62" height="19" as="geometry">
            <mxRectangle width="62" height="19" as="alternateBounds" />
          </mxGeometry>
        </mxCell>
        <mxCell id="yxMzsUbInx-t9ANGKYJj-216" value="F" style="shape=partialRectangle;html=1;whiteSpace=wrap;connectable=0;strokeColor=inherit;overflow=hidden;fillColor=none;top=0;left=0;bottom=0;right=0;pointerEvents=1;" parent="yxMzsUbInx-t9ANGKYJj-176" vertex="1">
          <mxGeometry x="200" width="62" height="19" as="geometry">
            <mxRectangle width="62" height="19" as="alternateBounds" />
          </mxGeometry>
        </mxCell>
        <mxCell id="yxMzsUbInx-t9ANGKYJj-181" value="" style="shape=tableRow;horizontal=0;startSize=0;swimlaneHead=0;swimlaneBody=0;strokeColor=inherit;top=0;left=0;bottom=0;right=0;collapsible=0;dropTarget=0;fillColor=none;points=[[0,0.5],[1,0.5]];portConstraint=eastwest;" parent="yxMzsUbInx-t9ANGKYJj-165" vertex="1">
          <mxGeometry y="63" width="261.68292682926835" height="21" as="geometry" />
        </mxCell>
        <mxCell id="yxMzsUbInx-t9ANGKYJj-182" value="1" style="shape=partialRectangle;html=1;whiteSpace=wrap;connectable=0;strokeColor=inherit;overflow=hidden;fillColor=none;top=0;left=0;bottom=0;right=0;pointerEvents=1;" parent="yxMzsUbInx-t9ANGKYJj-181" vertex="1">
          <mxGeometry width="47" height="21" as="geometry">
            <mxRectangle width="47" height="21" as="alternateBounds" />
          </mxGeometry>
        </mxCell>
        <mxCell id="yxMzsUbInx-t9ANGKYJj-183" value="0" style="shape=partialRectangle;html=1;whiteSpace=wrap;connectable=0;strokeColor=inherit;overflow=hidden;fillColor=none;top=0;left=0;bottom=0;right=0;pointerEvents=1;" parent="yxMzsUbInx-t9ANGKYJj-181" vertex="1">
          <mxGeometry x="47" width="46" height="21" as="geometry">
            <mxRectangle width="46" height="21" as="alternateBounds" />
          </mxGeometry>
        </mxCell>
        <mxCell id="yxMzsUbInx-t9ANGKYJj-184" value="1" style="shape=partialRectangle;html=1;whiteSpace=wrap;connectable=0;strokeColor=inherit;overflow=hidden;fillColor=none;top=0;left=0;bottom=0;right=0;pointerEvents=1;" parent="yxMzsUbInx-t9ANGKYJj-181" vertex="1">
          <mxGeometry x="93" width="45" height="21" as="geometry">
            <mxRectangle width="45" height="21" as="alternateBounds" />
          </mxGeometry>
        </mxCell>
        <mxCell id="yxMzsUbInx-t9ANGKYJj-185" value="1" style="shape=partialRectangle;html=1;whiteSpace=wrap;connectable=0;strokeColor=inherit;overflow=hidden;fillColor=none;top=0;left=0;bottom=0;right=0;pointerEvents=1;" parent="yxMzsUbInx-t9ANGKYJj-181" vertex="1">
          <mxGeometry x="138" width="62" height="21" as="geometry">
            <mxRectangle width="62" height="21" as="alternateBounds" />
          </mxGeometry>
        </mxCell>
        <mxCell id="yxMzsUbInx-t9ANGKYJj-217" value="F" style="shape=partialRectangle;html=1;whiteSpace=wrap;connectable=0;strokeColor=inherit;overflow=hidden;fillColor=none;top=0;left=0;bottom=0;right=0;pointerEvents=1;" parent="yxMzsUbInx-t9ANGKYJj-181" vertex="1">
          <mxGeometry x="200" width="62" height="21" as="geometry">
            <mxRectangle width="62" height="21" as="alternateBounds" />
          </mxGeometry>
        </mxCell>
        <mxCell id="yxMzsUbInx-t9ANGKYJj-186" value="" style="shape=tableRow;horizontal=0;startSize=0;swimlaneHead=0;swimlaneBody=0;strokeColor=inherit;top=0;left=0;bottom=0;right=0;collapsible=0;dropTarget=0;fillColor=none;points=[[0,0.5],[1,0.5]];portConstraint=eastwest;" parent="yxMzsUbInx-t9ANGKYJj-165" vertex="1">
          <mxGeometry y="84" width="261.68292682926835" height="22" as="geometry" />
        </mxCell>
        <mxCell id="yxMzsUbInx-t9ANGKYJj-187" value="0" style="shape=partialRectangle;html=1;whiteSpace=wrap;connectable=0;strokeColor=inherit;overflow=hidden;fillColor=none;top=0;left=0;bottom=0;right=0;pointerEvents=1;" parent="yxMzsUbInx-t9ANGKYJj-186" vertex="1">
          <mxGeometry width="47" height="22" as="geometry">
            <mxRectangle width="47" height="22" as="alternateBounds" />
          </mxGeometry>
        </mxCell>
        <mxCell id="yxMzsUbInx-t9ANGKYJj-188" value="1" style="shape=partialRectangle;html=1;whiteSpace=wrap;connectable=0;strokeColor=inherit;overflow=hidden;fillColor=none;top=0;left=0;bottom=0;right=0;pointerEvents=1;" parent="yxMzsUbInx-t9ANGKYJj-186" vertex="1">
          <mxGeometry x="47" width="46" height="22" as="geometry">
            <mxRectangle width="46" height="22" as="alternateBounds" />
          </mxGeometry>
        </mxCell>
        <mxCell id="yxMzsUbInx-t9ANGKYJj-189" value="0" style="shape=partialRectangle;html=1;whiteSpace=wrap;connectable=0;strokeColor=inherit;overflow=hidden;fillColor=none;top=0;left=0;bottom=0;right=0;pointerEvents=1;" parent="yxMzsUbInx-t9ANGKYJj-186" vertex="1">
          <mxGeometry x="93" width="45" height="22" as="geometry">
            <mxRectangle width="45" height="22" as="alternateBounds" />
          </mxGeometry>
        </mxCell>
        <mxCell id="yxMzsUbInx-t9ANGKYJj-190" value="1" style="shape=partialRectangle;html=1;whiteSpace=wrap;connectable=0;strokeColor=inherit;overflow=hidden;fillColor=none;top=0;left=0;bottom=0;right=0;pointerEvents=1;" parent="yxMzsUbInx-t9ANGKYJj-186" vertex="1">
          <mxGeometry x="138" width="62" height="22" as="geometry">
            <mxRectangle width="62" height="22" as="alternateBounds" />
          </mxGeometry>
        </mxCell>
        <mxCell id="yxMzsUbInx-t9ANGKYJj-218" value="T" style="shape=partialRectangle;html=1;whiteSpace=wrap;connectable=0;strokeColor=inherit;overflow=hidden;fillColor=none;top=0;left=0;bottom=0;right=0;pointerEvents=1;" parent="yxMzsUbInx-t9ANGKYJj-186" vertex="1">
          <mxGeometry x="200" width="62" height="22" as="geometry">
            <mxRectangle width="62" height="22" as="alternateBounds" />
          </mxGeometry>
        </mxCell>
        <mxCell id="yxMzsUbInx-t9ANGKYJj-191" value="" style="shape=tableRow;horizontal=0;startSize=0;swimlaneHead=0;swimlaneBody=0;strokeColor=inherit;top=0;left=0;bottom=0;right=0;collapsible=0;dropTarget=0;fillColor=none;points=[[0,0.5],[1,0.5]];portConstraint=eastwest;" parent="yxMzsUbInx-t9ANGKYJj-165" vertex="1">
          <mxGeometry y="106" width="261.68292682926835" height="21" as="geometry" />
        </mxCell>
        <mxCell id="yxMzsUbInx-t9ANGKYJj-192" value="0" style="shape=partialRectangle;html=1;whiteSpace=wrap;connectable=0;strokeColor=inherit;overflow=hidden;fillColor=none;top=0;left=0;bottom=0;right=0;pointerEvents=1;" parent="yxMzsUbInx-t9ANGKYJj-191" vertex="1">
          <mxGeometry width="47" height="21" as="geometry">
            <mxRectangle width="47" height="21" as="alternateBounds" />
          </mxGeometry>
        </mxCell>
        <mxCell id="yxMzsUbInx-t9ANGKYJj-193" value="1" style="shape=partialRectangle;html=1;whiteSpace=wrap;connectable=0;strokeColor=inherit;overflow=hidden;fillColor=none;top=0;left=0;bottom=0;right=0;pointerEvents=1;" parent="yxMzsUbInx-t9ANGKYJj-191" vertex="1">
          <mxGeometry x="47" width="46" height="21" as="geometry">
            <mxRectangle width="46" height="21" as="alternateBounds" />
          </mxGeometry>
        </mxCell>
        <mxCell id="yxMzsUbInx-t9ANGKYJj-194" value="1" style="shape=partialRectangle;html=1;whiteSpace=wrap;connectable=0;strokeColor=inherit;overflow=hidden;fillColor=none;top=0;left=0;bottom=0;right=0;pointerEvents=1;" parent="yxMzsUbInx-t9ANGKYJj-191" vertex="1">
          <mxGeometry x="93" width="45" height="21" as="geometry">
            <mxRectangle width="45" height="21" as="alternateBounds" />
          </mxGeometry>
        </mxCell>
        <mxCell id="yxMzsUbInx-t9ANGKYJj-195" value="1" style="shape=partialRectangle;html=1;whiteSpace=wrap;connectable=0;strokeColor=inherit;overflow=hidden;fillColor=none;top=0;left=0;bottom=0;right=0;pointerEvents=1;" parent="yxMzsUbInx-t9ANGKYJj-191" vertex="1">
          <mxGeometry x="138" width="62" height="21" as="geometry">
            <mxRectangle width="62" height="21" as="alternateBounds" />
          </mxGeometry>
        </mxCell>
        <mxCell id="yxMzsUbInx-t9ANGKYJj-219" value="T" style="shape=partialRectangle;html=1;whiteSpace=wrap;connectable=0;strokeColor=inherit;overflow=hidden;fillColor=none;top=0;left=0;bottom=0;right=0;pointerEvents=1;" parent="yxMzsUbInx-t9ANGKYJj-191" vertex="1">
          <mxGeometry x="200" width="62" height="21" as="geometry">
            <mxRectangle width="62" height="21" as="alternateBounds" />
          </mxGeometry>
        </mxCell>
        <mxCell id="yxMzsUbInx-t9ANGKYJj-196" value="" style="shape=tableRow;horizontal=0;startSize=0;swimlaneHead=0;swimlaneBody=0;strokeColor=inherit;top=0;left=0;bottom=0;right=0;collapsible=0;dropTarget=0;fillColor=none;points=[[0,0.5],[1,0.5]];portConstraint=eastwest;" parent="yxMzsUbInx-t9ANGKYJj-165" vertex="1">
          <mxGeometry y="127" width="261.68292682926835" height="19" as="geometry" />
        </mxCell>
        <mxCell id="yxMzsUbInx-t9ANGKYJj-197" value="0" style="shape=partialRectangle;html=1;whiteSpace=wrap;connectable=0;strokeColor=inherit;overflow=hidden;fillColor=none;top=0;left=0;bottom=0;right=0;pointerEvents=1;" parent="yxMzsUbInx-t9ANGKYJj-196" vertex="1">
          <mxGeometry width="47" height="19" as="geometry">
            <mxRectangle width="47" height="19" as="alternateBounds" />
          </mxGeometry>
        </mxCell>
        <mxCell id="yxMzsUbInx-t9ANGKYJj-198" value="0" style="shape=partialRectangle;html=1;whiteSpace=wrap;connectable=0;strokeColor=inherit;overflow=hidden;fillColor=none;top=0;left=0;bottom=0;right=0;pointerEvents=1;" parent="yxMzsUbInx-t9ANGKYJj-196" vertex="1">
          <mxGeometry x="47" width="46" height="19" as="geometry">
            <mxRectangle width="46" height="19" as="alternateBounds" />
          </mxGeometry>
        </mxCell>
        <mxCell id="yxMzsUbInx-t9ANGKYJj-199" value="1" style="shape=partialRectangle;html=1;whiteSpace=wrap;connectable=0;strokeColor=inherit;overflow=hidden;fillColor=none;top=0;left=0;bottom=0;right=0;pointerEvents=1;" parent="yxMzsUbInx-t9ANGKYJj-196" vertex="1">
          <mxGeometry x="93" width="45" height="19" as="geometry">
            <mxRectangle width="45" height="19" as="alternateBounds" />
          </mxGeometry>
        </mxCell>
        <mxCell id="yxMzsUbInx-t9ANGKYJj-200" value="1" style="shape=partialRectangle;html=1;whiteSpace=wrap;connectable=0;strokeColor=inherit;overflow=hidden;fillColor=none;top=0;left=0;bottom=0;right=0;pointerEvents=1;" parent="yxMzsUbInx-t9ANGKYJj-196" vertex="1">
          <mxGeometry x="138" width="62" height="19" as="geometry">
            <mxRectangle width="62" height="19" as="alternateBounds" />
          </mxGeometry>
        </mxCell>
        <mxCell id="yxMzsUbInx-t9ANGKYJj-220" value="T" style="shape=partialRectangle;html=1;whiteSpace=wrap;connectable=0;strokeColor=inherit;overflow=hidden;fillColor=none;top=0;left=0;bottom=0;right=0;pointerEvents=1;" parent="yxMzsUbInx-t9ANGKYJj-196" vertex="1">
          <mxGeometry x="200" width="62" height="19" as="geometry">
            <mxRectangle width="62" height="19" as="alternateBounds" />
          </mxGeometry>
        </mxCell>
        <mxCell id="yxMzsUbInx-t9ANGKYJj-201" value="" style="shape=tableRow;horizontal=0;startSize=0;swimlaneHead=0;swimlaneBody=0;strokeColor=inherit;top=0;left=0;bottom=0;right=0;collapsible=0;dropTarget=0;fillColor=none;points=[[0,0.5],[1,0.5]];portConstraint=eastwest;" parent="yxMzsUbInx-t9ANGKYJj-165" vertex="1">
          <mxGeometry y="146" width="261.68292682926835" height="22" as="geometry" />
        </mxCell>
        <mxCell id="yxMzsUbInx-t9ANGKYJj-202" value="1" style="shape=partialRectangle;html=1;whiteSpace=wrap;connectable=0;strokeColor=inherit;overflow=hidden;fillColor=none;top=0;left=0;bottom=0;right=0;pointerEvents=1;" parent="yxMzsUbInx-t9ANGKYJj-201" vertex="1">
          <mxGeometry width="47" height="22" as="geometry">
            <mxRectangle width="47" height="22" as="alternateBounds" />
          </mxGeometry>
        </mxCell>
        <mxCell id="yxMzsUbInx-t9ANGKYJj-203" value="1" style="shape=partialRectangle;html=1;whiteSpace=wrap;connectable=0;strokeColor=inherit;overflow=hidden;fillColor=none;top=0;left=0;bottom=0;right=0;pointerEvents=1;" parent="yxMzsUbInx-t9ANGKYJj-201" vertex="1">
          <mxGeometry x="47" width="46" height="22" as="geometry">
            <mxRectangle width="46" height="22" as="alternateBounds" />
          </mxGeometry>
        </mxCell>
        <mxCell id="yxMzsUbInx-t9ANGKYJj-204" value="1" style="shape=partialRectangle;html=1;whiteSpace=wrap;connectable=0;strokeColor=inherit;overflow=hidden;fillColor=none;top=0;left=0;bottom=0;right=0;pointerEvents=1;" parent="yxMzsUbInx-t9ANGKYJj-201" vertex="1">
          <mxGeometry x="93" width="45" height="22" as="geometry">
            <mxRectangle width="45" height="22" as="alternateBounds" />
          </mxGeometry>
        </mxCell>
        <mxCell id="yxMzsUbInx-t9ANGKYJj-205" value="1" style="shape=partialRectangle;html=1;whiteSpace=wrap;connectable=0;strokeColor=inherit;overflow=hidden;fillColor=none;top=0;left=0;bottom=0;right=0;pointerEvents=1;" parent="yxMzsUbInx-t9ANGKYJj-201" vertex="1">
          <mxGeometry x="138" width="62" height="22" as="geometry">
            <mxRectangle width="62" height="22" as="alternateBounds" />
          </mxGeometry>
        </mxCell>
        <mxCell id="yxMzsUbInx-t9ANGKYJj-221" value="F" style="shape=partialRectangle;html=1;whiteSpace=wrap;connectable=0;strokeColor=inherit;overflow=hidden;fillColor=none;top=0;left=0;bottom=0;right=0;pointerEvents=1;" parent="yxMzsUbInx-t9ANGKYJj-201" vertex="1">
          <mxGeometry x="200" width="62" height="22" as="geometry">
            <mxRectangle width="62" height="22" as="alternateBounds" />
          </mxGeometry>
        </mxCell>
        <mxCell id="yxMzsUbInx-t9ANGKYJj-252" value="" style="shape=table;startSize=0;container=1;collapsible=0;childLayout=tableLayout;" parent="1" vertex="1">
          <mxGeometry x="970" y="553" width="176.9024390243908" height="80" as="geometry" />
        </mxCell>
        <mxCell id="yxMzsUbInx-t9ANGKYJj-253" value="" style="shape=tableRow;horizontal=0;startSize=0;swimlaneHead=0;swimlaneBody=0;strokeColor=inherit;top=0;left=0;bottom=0;right=0;collapsible=0;dropTarget=0;fillColor=none;points=[[0,0.5],[1,0.5]];portConstraint=eastwest;" parent="yxMzsUbInx-t9ANGKYJj-252" vertex="1">
          <mxGeometry width="176.9024390243908" height="20" as="geometry" />
        </mxCell>
        <mxCell id="yxMzsUbInx-t9ANGKYJj-254" value="start" style="shape=partialRectangle;html=1;whiteSpace=wrap;connectable=0;strokeColor=inherit;overflow=hidden;fillColor=none;top=0;left=0;bottom=0;right=0;pointerEvents=1;" parent="yxMzsUbInx-t9ANGKYJj-253" vertex="1">
          <mxGeometry width="40" height="20" as="geometry">
            <mxRectangle width="40" height="20" as="alternateBounds" />
          </mxGeometry>
        </mxCell>
        <mxCell id="yxMzsUbInx-t9ANGKYJj-255" value="end" style="shape=partialRectangle;html=1;whiteSpace=wrap;connectable=0;strokeColor=inherit;overflow=hidden;fillColor=none;top=0;left=0;bottom=0;right=0;pointerEvents=1;" parent="yxMzsUbInx-t9ANGKYJj-253" vertex="1">
          <mxGeometry x="40" width="41" height="20" as="geometry">
            <mxRectangle width="41" height="20" as="alternateBounds" />
          </mxGeometry>
        </mxCell>
        <mxCell id="yxMzsUbInx-t9ANGKYJj-256" value="type" style="shape=partialRectangle;html=1;whiteSpace=wrap;connectable=0;strokeColor=inherit;overflow=hidden;fillColor=none;top=0;left=0;bottom=0;right=0;pointerEvents=1;" parent="yxMzsUbInx-t9ANGKYJj-253" vertex="1">
          <mxGeometry x="81" width="40" height="20" as="geometry">
            <mxRectangle width="40" height="20" as="alternateBounds" />
          </mxGeometry>
        </mxCell>
        <mxCell id="yxMzsUbInx-t9ANGKYJj-311" value="duration" style="shape=partialRectangle;html=1;whiteSpace=wrap;connectable=0;strokeColor=inherit;overflow=hidden;fillColor=none;top=0;left=0;bottom=0;right=0;pointerEvents=1;" parent="yxMzsUbInx-t9ANGKYJj-253" vertex="1">
          <mxGeometry x="121" width="56" height="20" as="geometry">
            <mxRectangle width="56" height="20" as="alternateBounds" />
          </mxGeometry>
        </mxCell>
        <mxCell id="yxMzsUbInx-t9ANGKYJj-257" style="shape=tableRow;horizontal=0;startSize=0;swimlaneHead=0;swimlaneBody=0;strokeColor=inherit;top=0;left=0;bottom=0;right=0;collapsible=0;dropTarget=0;fillColor=none;points=[[0,0.5],[1,0.5]];portConstraint=eastwest;" parent="yxMzsUbInx-t9ANGKYJj-252" vertex="1">
          <mxGeometry y="20" width="176.9024390243908" height="20" as="geometry" />
        </mxCell>
        <mxCell id="yxMzsUbInx-t9ANGKYJj-258" value="2" style="shape=partialRectangle;html=1;whiteSpace=wrap;connectable=0;strokeColor=inherit;overflow=hidden;fillColor=none;top=0;left=0;bottom=0;right=0;pointerEvents=1;" parent="yxMzsUbInx-t9ANGKYJj-257" vertex="1">
          <mxGeometry width="40" height="20" as="geometry">
            <mxRectangle width="40" height="20" as="alternateBounds" />
          </mxGeometry>
        </mxCell>
        <mxCell id="yxMzsUbInx-t9ANGKYJj-259" value="4" style="shape=partialRectangle;html=1;whiteSpace=wrap;connectable=0;strokeColor=inherit;overflow=hidden;fillColor=none;top=0;left=0;bottom=0;right=0;pointerEvents=1;" parent="yxMzsUbInx-t9ANGKYJj-257" vertex="1">
          <mxGeometry x="40" width="41" height="20" as="geometry">
            <mxRectangle width="41" height="20" as="alternateBounds" />
          </mxGeometry>
        </mxCell>
        <mxCell id="yxMzsUbInx-t9ANGKYJj-260" value="A" style="shape=partialRectangle;html=1;whiteSpace=wrap;connectable=0;strokeColor=inherit;overflow=hidden;fillColor=none;top=0;left=0;bottom=0;right=0;pointerEvents=1;" parent="yxMzsUbInx-t9ANGKYJj-257" vertex="1">
          <mxGeometry x="81" width="40" height="20" as="geometry">
            <mxRectangle width="40" height="20" as="alternateBounds" />
          </mxGeometry>
        </mxCell>
        <mxCell id="yxMzsUbInx-t9ANGKYJj-312" value="2" style="shape=partialRectangle;html=1;whiteSpace=wrap;connectable=0;strokeColor=inherit;overflow=hidden;fillColor=none;top=0;left=0;bottom=0;right=0;pointerEvents=1;" parent="yxMzsUbInx-t9ANGKYJj-257" vertex="1">
          <mxGeometry x="121" width="56" height="20" as="geometry">
            <mxRectangle width="56" height="20" as="alternateBounds" />
          </mxGeometry>
        </mxCell>
        <mxCell id="yxMzsUbInx-t9ANGKYJj-261" style="shape=tableRow;horizontal=0;startSize=0;swimlaneHead=0;swimlaneBody=0;strokeColor=inherit;top=0;left=0;bottom=0;right=0;collapsible=0;dropTarget=0;fillColor=none;points=[[0,0.5],[1,0.5]];portConstraint=eastwest;" parent="yxMzsUbInx-t9ANGKYJj-252" vertex="1">
          <mxGeometry y="40" width="176.9024390243908" height="20" as="geometry" />
        </mxCell>
        <mxCell id="yxMzsUbInx-t9ANGKYJj-262" value="2" style="shape=partialRectangle;html=1;whiteSpace=wrap;connectable=0;strokeColor=inherit;overflow=hidden;fillColor=none;top=0;left=0;bottom=0;right=0;pointerEvents=1;" parent="yxMzsUbInx-t9ANGKYJj-261" vertex="1">
          <mxGeometry width="40" height="20" as="geometry">
            <mxRectangle width="40" height="20" as="alternateBounds" />
          </mxGeometry>
        </mxCell>
        <mxCell id="yxMzsUbInx-t9ANGKYJj-263" value="4" style="shape=partialRectangle;html=1;whiteSpace=wrap;connectable=0;strokeColor=inherit;overflow=hidden;fillColor=none;top=0;left=0;bottom=0;right=0;pointerEvents=1;" parent="yxMzsUbInx-t9ANGKYJj-261" vertex="1">
          <mxGeometry x="40" width="41" height="20" as="geometry">
            <mxRectangle width="41" height="20" as="alternateBounds" />
          </mxGeometry>
        </mxCell>
        <mxCell id="yxMzsUbInx-t9ANGKYJj-264" value="A" style="shape=partialRectangle;html=1;whiteSpace=wrap;connectable=0;strokeColor=inherit;overflow=hidden;fillColor=none;top=0;left=0;bottom=0;right=0;pointerEvents=1;" parent="yxMzsUbInx-t9ANGKYJj-261" vertex="1">
          <mxGeometry x="81" width="40" height="20" as="geometry">
            <mxRectangle width="40" height="20" as="alternateBounds" />
          </mxGeometry>
        </mxCell>
        <mxCell id="yxMzsUbInx-t9ANGKYJj-313" value="2" style="shape=partialRectangle;html=1;whiteSpace=wrap;connectable=0;strokeColor=inherit;overflow=hidden;fillColor=none;top=0;left=0;bottom=0;right=0;pointerEvents=1;" parent="yxMzsUbInx-t9ANGKYJj-261" vertex="1">
          <mxGeometry x="121" width="56" height="20" as="geometry">
            <mxRectangle width="56" height="20" as="alternateBounds" />
          </mxGeometry>
        </mxCell>
        <mxCell id="yxMzsUbInx-t9ANGKYJj-265" style="shape=tableRow;horizontal=0;startSize=0;swimlaneHead=0;swimlaneBody=0;strokeColor=inherit;top=0;left=0;bottom=0;right=0;collapsible=0;dropTarget=0;fillColor=none;points=[[0,0.5],[1,0.5]];portConstraint=eastwest;" parent="yxMzsUbInx-t9ANGKYJj-252" vertex="1">
          <mxGeometry y="60" width="176.9024390243908" height="20" as="geometry" />
        </mxCell>
        <mxCell id="yxMzsUbInx-t9ANGKYJj-266" value="3" style="shape=partialRectangle;html=1;whiteSpace=wrap;connectable=0;strokeColor=inherit;overflow=hidden;fillColor=none;top=0;left=0;bottom=0;right=0;pointerEvents=1;" parent="yxMzsUbInx-t9ANGKYJj-265" vertex="1">
          <mxGeometry width="40" height="20" as="geometry">
            <mxRectangle width="40" height="20" as="alternateBounds" />
          </mxGeometry>
        </mxCell>
        <mxCell id="yxMzsUbInx-t9ANGKYJj-267" value="4" style="shape=partialRectangle;html=1;whiteSpace=wrap;connectable=0;strokeColor=inherit;overflow=hidden;fillColor=none;top=0;left=0;bottom=0;right=0;pointerEvents=1;" parent="yxMzsUbInx-t9ANGKYJj-265" vertex="1">
          <mxGeometry x="40" width="41" height="20" as="geometry">
            <mxRectangle width="41" height="20" as="alternateBounds" />
          </mxGeometry>
        </mxCell>
        <mxCell id="yxMzsUbInx-t9ANGKYJj-268" value="A" style="shape=partialRectangle;html=1;whiteSpace=wrap;connectable=0;strokeColor=inherit;overflow=hidden;fillColor=none;top=0;left=0;bottom=0;right=0;pointerEvents=1;" parent="yxMzsUbInx-t9ANGKYJj-265" vertex="1">
          <mxGeometry x="81" width="40" height="20" as="geometry">
            <mxRectangle width="40" height="20" as="alternateBounds" />
          </mxGeometry>
        </mxCell>
        <mxCell id="yxMzsUbInx-t9ANGKYJj-314" value="1" style="shape=partialRectangle;html=1;whiteSpace=wrap;connectable=0;strokeColor=inherit;overflow=hidden;fillColor=none;top=0;left=0;bottom=0;right=0;pointerEvents=1;" parent="yxMzsUbInx-t9ANGKYJj-265" vertex="1">
          <mxGeometry x="121" width="56" height="20" as="geometry">
            <mxRectangle width="56" height="20" as="alternateBounds" />
          </mxGeometry>
        </mxCell>
        <mxCell id="yxMzsUbInx-t9ANGKYJj-269" value="所有可能满足的组合" style="text;html=1;align=center;verticalAlign=middle;whiteSpace=wrap;rounded=0;" parent="1" vertex="1">
          <mxGeometry x="518" y="504" width="69" height="30" as="geometry" />
        </mxCell>
        <mxCell id="yxMzsUbInx-t9ANGKYJj-270" value="满足组合的时间信息" style="text;html=1;align=center;verticalAlign=middle;whiteSpace=wrap;rounded=0;" parent="1" vertex="1">
          <mxGeometry x="911" y="504" width="69" height="30" as="geometry" />
        </mxCell>
        <mxCell id="yxMzsUbInx-t9ANGKYJj-291" value="" style="endArrow=classic;html=1;rounded=0;" parent="1" edge="1">
          <mxGeometry width="50" height="50" relative="1" as="geometry">
            <mxPoint x="900" y="593" as="sourcePoint" />
            <mxPoint x="963" y="593" as="targetPoint" />
          </mxGeometry>
        </mxCell>
        <mxCell id="yxMzsUbInx-t9ANGKYJj-310" value="Question: 如何保存信息，&lt;span style=&quot;background-color: initial;&quot;&gt;在`t_4`这个时间点，&lt;/span&gt;&lt;div&gt;&lt;span style=&quot;background-color: initial;&quot;&gt;有3个满足条件A事件发生&lt;/span&gt;&lt;/div&gt;" style="text;html=1;align=left;verticalAlign=middle;resizable=0;points=[];autosize=1;strokeColor=none;fillColor=none;" parent="1" vertex="1">
          <mxGeometry x="967" y="642" width="265" height="41" as="geometry" />
        </mxCell>
        <mxCell id="yxMzsUbInx-t9ANGKYJj-315" value="`b_5 b_7`" style="text;html=1;align=center;verticalAlign=middle;resizable=0;points=[];autosize=1;strokeColor=none;fillColor=none;" parent="1" vertex="1">
          <mxGeometry x="460" y="723" width="69" height="26" as="geometry" />
        </mxCell>
        <mxCell id="yxMzsUbInx-t9ANGKYJj-316" value="B匹配成功" style="text;html=1;align=center;verticalAlign=middle;resizable=0;points=[];autosize=1;strokeColor=none;fillColor=none;" parent="1" vertex="1">
          <mxGeometry x="386" y="723" width="74" height="26" as="geometry" />
        </mxCell>
        <mxCell id="yxMzsUbInx-t9ANGKYJj-317" value="查询是否有满足时序条件的A事件发生" style="text;html=1;align=center;verticalAlign=middle;resizable=0;points=[];autosize=1;strokeColor=none;fillColor=none;" parent="1" vertex="1">
          <mxGeometry x="650.84" y="788.5" width="218" height="26" as="geometry" />
        </mxCell>
        <mxCell id="yxMzsUbInx-t9ANGKYJj-321" value="" style="edgeStyle=orthogonalEdgeStyle;rounded=0;orthogonalLoop=1;jettySize=auto;html=1;entryX=0;entryY=0.5;entryDx=0;entryDy=0;" parent="1" source="yxMzsUbInx-t9ANGKYJj-318" target="yxMzsUbInx-t9ANGKYJj-320" edge="1">
          <mxGeometry relative="1" as="geometry" />
        </mxCell>
        <mxCell id="yxMzsUbInx-t9ANGKYJj-318" value="`t_4`时刻，满足A，且&lt;div&gt;$$duration \le time\_limit - 2 = 2$$&lt;/div&gt;" style="text;html=1;align=center;verticalAlign=middle;resizable=0;points=[];autosize=1;strokeColor=none;fillColor=none;" parent="1" vertex="1">
          <mxGeometry x="967.0000000000001" y="781" width="199" height="41" as="geometry" />
        </mxCell>
        <mxCell id="yxMzsUbInx-t9ANGKYJj-320" value="求解模式" style="whiteSpace=wrap;html=1;" parent="1" vertex="1">
          <mxGeometry x="1331" y="633" width="120" height="60" as="geometry" />
        </mxCell>
        <mxCell id="yxMzsUbInx-t9ANGKYJj-322" style="edgeStyle=orthogonalEdgeStyle;rounded=0;orthogonalLoop=1;jettySize=auto;html=1;exitX=1;exitY=0.5;exitDx=0;exitDy=0;entryX=0;entryY=0.5;entryDx=0;entryDy=0;" parent="1" source="yxMzsUbInx-t9ANGKYJj-265" target="yxMzsUbInx-t9ANGKYJj-320" edge="1">
          <mxGeometry relative="1" as="geometry">
            <Array as="points">
              <mxPoint x="1248" y="623" />
              <mxPoint x="1248" y="663" />
            </Array>
          </mxGeometry>
        </mxCell>
        <mxCell id="yxMzsUbInx-t9ANGKYJj-324" value="模式有解" style="text;html=1;align=center;verticalAlign=middle;resizable=0;points=[];autosize=1;strokeColor=none;fillColor=none;" parent="1" vertex="1">
          <mxGeometry x="1253" y="639" width="66" height="26" as="geometry" />
        </mxCell>
        <mxCell id="yxMzsUbInx-t9ANGKYJj-325" value="Question: 查询所有可能的duration太耗费时间" style="text;html=1;align=left;verticalAlign=middle;resizable=0;points=[];autosize=1;strokeColor=none;fillColor=none;" parent="1" vertex="1">
          <mxGeometry x="967" y="836" width="260" height="26" as="geometry" />
        </mxCell>
        <mxCell id="yxMzsUbInx-t9ANGKYJj-326" value="优化的事情以后再想，&lt;div&gt;在这里直接存&lt;/div&gt;" style="text;html=1;align=center;verticalAlign=middle;resizable=0;points=[];autosize=1;strokeColor=none;fillColor=none;" parent="1" vertex="1">
          <mxGeometry x="1319" y="534" width="138" height="41" as="geometry" />
        </mxCell>
        <mxCell id="yxMzsUbInx-t9ANGKYJj-327" value="这里的解决思路就是，和sql的思路一致，&lt;div&gt;先投影，过滤掉可能的事件，根据两个子模式成功匹配的子集&lt;/div&gt;&lt;div&gt;再进行全连接找寻满足时间约束的解&lt;/div&gt;" style="text;html=1;align=center;verticalAlign=middle;resizable=0;points=[];autosize=1;strokeColor=none;fillColor=none;" parent="1" vertex="1">
          <mxGeometry x="1495" y="639" width="342" height="55" as="geometry" />
        </mxCell>
        <mxCell id="ZNG3TC51sU9WlU0XuUPH-1" value="&lt;font style=&quot;font-size: 24px;&quot;&gt;Situation 2:&lt;/font&gt;" style="text;html=1;align=center;verticalAlign=middle;whiteSpace=wrap;rounded=0;" vertex="1" parent="1">
          <mxGeometry x="32" y="864" width="166" height="138" as="geometry" />
        </mxCell>
        <mxCell id="ZNG3TC51sU9WlU0XuUPH-2" value="" style="edgeStyle=orthogonalEdgeStyle;rounded=0;orthogonalLoop=1;jettySize=auto;html=1;" edge="1" parent="1" source="ZNG3TC51sU9WlU0XuUPH-3" target="ZNG3TC51sU9WlU0XuUPH-5">
          <mxGeometry relative="1" as="geometry" />
        </mxCell>
        <mxCell id="ZNG3TC51sU9WlU0XuUPH-3" value="A" style="ellipse;whiteSpace=wrap;html=1;aspect=fixed;" vertex="1" parent="1">
          <mxGeometry x="996" y="1041.01" width="42" height="42" as="geometry" />
        </mxCell>
        <mxCell id="ZNG3TC51sU9WlU0XuUPH-4" style="edgeStyle=orthogonalEdgeStyle;rounded=0;orthogonalLoop=1;jettySize=auto;html=1;exitX=0;exitY=0;exitDx=0;exitDy=0;entryX=1;entryY=0;entryDx=0;entryDy=0;curved=1;" edge="1" parent="1" source="ZNG3TC51sU9WlU0XuUPH-3" target="ZNG3TC51sU9WlU0XuUPH-3">
          <mxGeometry relative="1" as="geometry">
            <Array as="points">
              <mxPoint x="1002" y="1030.01" />
              <mxPoint x="1032" y="1030.01" />
            </Array>
          </mxGeometry>
        </mxCell>
        <mxCell id="ZNG3TC51sU9WlU0XuUPH-5" value="B" style="ellipse;whiteSpace=wrap;html=1;aspect=fixed;" vertex="1" parent="1">
          <mxGeometry x="1062" y="1041.01" width="42" height="42" as="geometry" />
        </mxCell>
        <mxCell id="ZNG3TC51sU9WlU0XuUPH-6" style="edgeStyle=orthogonalEdgeStyle;rounded=0;orthogonalLoop=1;jettySize=auto;html=1;exitX=0;exitY=0;exitDx=0;exitDy=0;entryX=1;entryY=0;entryDx=0;entryDy=0;curved=1;" edge="1" parent="1" source="ZNG3TC51sU9WlU0XuUPH-5" target="ZNG3TC51sU9WlU0XuUPH-5">
          <mxGeometry relative="1" as="geometry">
            <Array as="points">
              <mxPoint x="1068" y="1031.01" />
              <mxPoint x="1098" y="1031.01" />
            </Array>
          </mxGeometry>
        </mxCell>
        <mxCell id="ZNG3TC51sU9WlU0XuUPH-8" value="A" style="ellipse;whiteSpace=wrap;html=1;aspect=fixed;" vertex="1" parent="1">
          <mxGeometry x="958" y="1154.99" width="42" height="42" as="geometry" />
        </mxCell>
        <mxCell id="ZNG3TC51sU9WlU0XuUPH-9" style="edgeStyle=orthogonalEdgeStyle;rounded=0;orthogonalLoop=1;jettySize=auto;html=1;exitX=0;exitY=0;exitDx=0;exitDy=0;entryX=1;entryY=0;entryDx=0;entryDy=0;curved=1;" edge="1" parent="1" source="ZNG3TC51sU9WlU0XuUPH-8" target="ZNG3TC51sU9WlU0XuUPH-8">
          <mxGeometry relative="1" as="geometry">
            <Array as="points">
              <mxPoint x="964" y="1143.99" />
              <mxPoint x="994" y="1143.99" />
            </Array>
          </mxGeometry>
        </mxCell>
        <mxCell id="ZNG3TC51sU9WlU0XuUPH-10" value="B" style="ellipse;whiteSpace=wrap;html=1;aspect=fixed;" vertex="1" parent="1">
          <mxGeometry x="1097" y="1154.99" width="42" height="42" as="geometry" />
        </mxCell>
        <mxCell id="ZNG3TC51sU9WlU0XuUPH-11" style="edgeStyle=orthogonalEdgeStyle;rounded=0;orthogonalLoop=1;jettySize=auto;html=1;exitX=0;exitY=0;exitDx=0;exitDy=0;entryX=1;entryY=0;entryDx=0;entryDy=0;curved=1;" edge="1" parent="1" source="ZNG3TC51sU9WlU0XuUPH-10" target="ZNG3TC51sU9WlU0XuUPH-10">
          <mxGeometry relative="1" as="geometry">
            <Array as="points">
              <mxPoint x="1103" y="1144.99" />
              <mxPoint x="1133" y="1144.99" />
            </Array>
          </mxGeometry>
        </mxCell>
        <mxCell id="ZNG3TC51sU9WlU0XuUPH-12" value="" style="shape=flexArrow;endArrow=classic;html=1;rounded=0;" edge="1" parent="1">
          <mxGeometry width="50" height="50" relative="1" as="geometry">
            <mxPoint x="1050" y="1092" as="sourcePoint" />
            <mxPoint x="1050" y="1141" as="targetPoint" />
          </mxGeometry>
        </mxCell>
        <mxCell id="ZNG3TC51sU9WlU0XuUPH-13" value="依据Kleene拆分为多个子模式" style="text;html=1;align=center;verticalAlign=middle;whiteSpace=wrap;rounded=0;" vertex="1" parent="1">
          <mxGeometry x="1072" y="1096" width="166" height="30" as="geometry" />
        </mxCell>
        <mxCell id="ZNG3TC51sU9WlU0XuUPH-14" value="$$B.endtime - A.starttime \leq time\_limit\ and\ MAX(B) + AVG(A) \ge&amp;nbsp; 20$$" style="text;html=1;align=center;verticalAlign=middle;whiteSpace=wrap;rounded=0;" vertex="1" parent="1">
          <mxGeometry x="1421" y="1164.02" width="192" height="30" as="geometry" />
        </mxCell>
        <mxCell id="ZNG3TC51sU9WlU0XuUPH-15" value="" style="verticalLabelPosition=bottom;verticalAlign=top;html=1;shape=mxgraph.flowchart.summing_function;" vertex="1" parent="1">
          <mxGeometry x="1035" y="1164.02" width="30" height="30" as="geometry" />
        </mxCell>
        <mxCell id="ZNG3TC51sU9WlU0XuUPH-16" value="" style="verticalLabelPosition=bottom;verticalAlign=top;html=1;shape=mxgraph.flowchart.summing_function;" vertex="1" parent="1">
          <mxGeometry x="1170" y="1164.02" width="30" height="30" as="geometry" />
        </mxCell>
        <mxCell id="ZNG3TC51sU9WlU0XuUPH-29" value="$$\begin{align}&amp;amp; P = A\{2,\} B\{2,\} \\&amp;amp; C_V = \{SSD(A) &amp;gt;= 5, AVG(B) &amp;gt;=10, MAX(B) + AVG(A) &amp;gt;= 20\} \\&amp;amp; C_T = \{B.endtime - A.starttime \leq 4\ second\} \end{align}$$" style="text;html=1;align=center;verticalAlign=middle;resizable=0;points=[];autosize=1;strokeColor=none;fillColor=none;" vertex="1" parent="1">
          <mxGeometry x="97" y="959" width="898" height="26" as="geometry" />
        </mxCell>
        <mxCell id="ZNG3TC51sU9WlU0XuUPH-121" value="Solution 1:&amp;nbsp; 和 上面方法一样，对于相互独立的约束，独立识别，将有依赖的约束交给where语句之后判断" style="text;html=1;align=center;verticalAlign=middle;whiteSpace=wrap;rounded=0;" vertex="1" parent="1">
          <mxGeometry x="923" y="952" width="248" height="30" as="geometry" />
        </mxCell>
        <mxCell id="ZNG3TC51sU9WlU0XuUPH-122" value="Solution 2:&amp;nbsp; 根据数据的采集频率，选择低组合数的线计算，再计算缓存数据或者未来数据是否有满足所有约束的结果" style="text;html=1;align=center;verticalAlign=middle;whiteSpace=wrap;rounded=0;" vertex="1" parent="1">
          <mxGeometry x="923" y="1243" width="248" height="30" as="geometry" />
        </mxCell>
        <mxCell id="ZNG3TC51sU9WlU0XuUPH-123" value="$$\begin{align}&amp;amp; P = A\{2,\} B\{2,\} \\&amp;amp; C_V = \{SSD(A) &amp;gt;= 5, AVG(B) + AVG(A) &amp;gt;= 20\} \\&amp;amp; C_T = \{B.endtime - A.starttime \leq 4\ second\} \end{align}$$" style="text;html=1;align=center;verticalAlign=middle;resizable=0;points=[];autosize=1;strokeColor=none;fillColor=none;" vertex="1" parent="1">
          <mxGeometry x="-62" y="1126" width="818" height="26" as="geometry" />
        </mxCell>
        <mxCell id="ZNG3TC51sU9WlU0XuUPH-124" value="难以优化的情况" style="text;html=1;align=center;verticalAlign=middle;whiteSpace=wrap;rounded=0;" vertex="1" parent="1">
          <mxGeometry x="104" y="1085" width="127" height="30" as="geometry" />
        </mxCell>
        <mxCell id="ZNG3TC51sU9WlU0XuUPH-125" value="B上的约束完全依赖于A结果的计算" style="text;html=1;align=center;verticalAlign=middle;resizable=0;points=[];autosize=1;strokeColor=none;fillColor=none;" vertex="1" parent="1">
          <mxGeometry x="171" y="1185" width="202" height="26" as="geometry" />
        </mxCell>
        <mxCell id="ZNG3TC51sU9WlU0XuUPH-126" value="如果延迟处理A会导致B到下一状态的转移永远为真，&lt;div&gt;当B是个Kleene闭包时，等于和B数量的幂集作全链接，显然不能接受，&lt;/div&gt;&lt;div&gt;所以只能按顺序处理&lt;/div&gt;" style="text;html=1;align=center;verticalAlign=middle;resizable=0;points=[];autosize=1;strokeColor=none;fillColor=none;" vertex="1" parent="1">
          <mxGeometry x="165" y="1213" width="395" height="55" as="geometry" />
        </mxCell>
        <mxCell id="ZNG3TC51sU9WlU0XuUPH-127" value="暴露延迟处理的弊端，对于Kleene事件，&lt;div&gt;要尽可能先过滤，再组合，&lt;/div&gt;&lt;div&gt;否则很容易组合爆炸&lt;/div&gt;" style="ellipse;shape=cloud;whiteSpace=wrap;html=1;" vertex="1" parent="1">
          <mxGeometry x="-284" y="1073.49" width="256" height="205" as="geometry" />
        </mxCell>
      </root>
    </mxGraphModel>
  </diagram>
</mxfile>
